<?xml version="1.0" standalone="no"?>
<!DOCTYPE svg PUBLIC "-//W3C//DTD SVG 20010904//EN"
 "http://www.w3.org/TR/2001/REC-SVG-20010904/DTD/svg10.dtd">
<svg version="1.0" xmlns="http://www.w3.org/2000/svg"
 width="500.000000pt" height="500.000000pt" viewBox="0 0 500.000000 500.000000"
 preserveAspectRatio="xMidYMid meet">

<g transform="translate(0.000000,500.000000) scale(0.100000,-0.100000)"
fill="#000000" stroke="none">
<path d="M0 2500 l0 -2500 2500 0 2500 0 0 2500 0 2500 -2500 0 -2500 0 0
-2500z m1305 -2 l120 -192 3 192 2 192 25 0 25 0 0 -230 0 -230 -32 1 c-32 0
-38 8 -155 191 l-123 191 0 -191 0 -192 -30 0 -30 0 0 230 0 230 38 0 37 -1
120 -191z m955 -38 l0 -230 -25 0 -25 0 0 230 0 230 25 0 25 0 0 -230z m-440
92 c98 -53 102 -235 8 -305 -61 -46 -175 -28 -220 34 -43 58 -42 176 2 232 44
55 144 74 210 39z m759 3 c16 -8 31 -22 35 -31 5 -13 11 -11 41 15 39 34 83
40 129 20 44 -20 56 -64 56 -203 l0 -126 -25 0 -25 0 0 118 c0 74 -5 126 -13
142 -17 34 -59 48 -91 30 -39 -21 -56 -77 -56 -190 0 -100 0 -100 -25 -100
l-25 0 0 124 c0 110 -2 126 -21 150 -29 37 -70 35 -103 -5 -25 -29 -26 -36
-26 -150 l0 -119 -25 0 -25 0 0 165 0 165 25 0 c19 0 25 -5 25 -22 0 -19 2
-20 13 -6 31 39 88 49 136 23z m562 -12 c29 -28 38 -81 39 -205 l0 -108 -30 0
c-20 0 -30 5 -30 15 0 12 -6 11 -32 -5 -47 -28 -99 -26 -137 6 -26 22 -31 33
-31 71 0 59 36 98 101 107 96 15 99 16 99 42 0 32 -34 64 -68 64 -15 0 -44 -9
-65 -19 l-37 -19 0 25 c0 52 146 72 191 26z m327 7 c26 -16 32 -17 32 -5 0 9
10 15 25 15 l25 0 0 -185 c0 -208 -6 -237 -61 -276 -37 -26 -122 -37 -179 -22
-28 7 -36 15 -38 36 -4 32 -5 31 44 11 53 -22 119 -14 152 19 18 18 26 39 30
77 l5 51 -39 -26 c-86 -59 -194 -7 -210 100 -10 70 10 145 49 182 18 17 39 33
47 36 33 12 87 6 118 -13z m390 0 c37 -23 62 -72 62 -125 l0 -35 -115 0 c-109
0 -115 -1 -115 -20 0 -12 7 -34 15 -50 31 -61 90 -76 158 -41 l37 19 0 -25 c0
-56 -152 -72 -206 -22 -41 38 -54 73 -54 141 0 47 6 73 23 102 40 71 129 96
195 56z"/>
<path d="M1694 2520 c-44 -17 -64 -58 -64 -127 0 -61 2 -67 34 -99 38 -38 77
-44 125 -20 36 19 51 55 51 121 0 30 -5 66 -12 80 -21 45 -82 66 -134 45z"/>
<path d="M3085 2395 c-5 -2 -27 -6 -47 -10 -21 -3 -44 -13 -53 -21 -35 -35 -2
-104 49 -104 14 0 38 12 55 26 26 22 31 33 31 70 0 42 -6 49 -35 39z"/>
<path d="M3362 2520 c-27 -11 -61 -82 -62 -128 0 -44 23 -96 51 -116 38 -26
77 -20 115 18 32 32 34 37 34 106 0 66 -2 74 -29 101 -31 30 -65 36 -109 19z"/>
<path d="M3731 2503 c-16 -16 -32 -38 -36 -50 -6 -23 -5 -23 84 -23 50 0 91 4
91 9 0 27 -25 70 -46 80 -39 17 -61 13 -93 -16z"/>
</g>
</svg>
