<svg version="1.0" xmlns="http://www.w3.org/2000/svg"
 width="7680.000000pt" height="4320.000000pt" viewBox="0 0 7680.000000 4320.000000"
 preserveAspectRatio="xMidYMid meet">
<g transform="translate(0.000000,4320.000000) scale(0.100000,-0.100000)"
fill="#000000" stroke="none">
<path d="M0 21600 l0 -21600 38400 0 38400 0 0 21600 0 21600 -38400 0 -38400
0 0 -21600z m33595 19 c259 -408 484 -763 500 -789 l30 -49 -3 790 -3 789 106
0 105 0 0 -920 0 -921 -132 3 -131 3 -479 740 c-264 407 -491 763 -506 792
l-27 52 3 -794 3 -795 -105 0 -106 0 0 920 0 920 138 0 137 -1 470 -740z
m3855 -179 l0 -920 -100 0 -100 0 0 920 0 920 100 0 100 0 0 -920z m-1935 405
c223 -47 383 -207 442 -440 25 -100 24 -355 -1 -445 -79 -285 -293 -455 -591
-467 -209 -9 -354 44 -485 176 -85 86 -129 164 -160 287 -25 98 -27 290 -4
402 53 260 246 449 502 492 78 13 223 11 297 -5z m3116 -1 c104 -30 185 -98
234 -194 14 -28 27 -50 29 -50 2 0 18 23 36 50 85 132 233 210 400 210 166 0
294 -67 357 -187 68 -127 67 -118 71 -660 l3 -493 -100 0 -101 0 0 433 c0 449
-5 517 -45 601 -70 146 -297 181 -427 66 -58 -51 -105 -124 -129 -201 -17 -56
-19 -97 -19 -480 l0 -419 -100 0 -100 0 0 403 c-1 441 -7 520 -46 608 -49 108
-121 152 -254 153 -76 1 -90 -2 -139 -29 -88 -49 -158 -155 -181 -275 -6 -30
-10 -227 -10 -456 l0 -404 -100 0 -100 0 0 655 0 655 100 0 100 0 0 -102 1
-103 22 30 c46 63 108 123 155 148 102 55 238 72 343 41z m2194 -10 c159 -55
242 -172 265 -372 5 -48 10 -279 10 -514 l0 -428 -105 0 -105 0 0 102 c0 98
-1 101 -16 78 -37 -55 -122 -133 -174 -160 -101 -51 -227 -63 -350 -34 -81 19
-133 49 -191 111 -70 75 -92 142 -87 273 3 96 6 112 36 172 73 149 178 200
511 248 113 16 221 32 239 35 31 6 32 8 32 54 0 79 -35 176 -80 221 -108 108
-371 86 -558 -47 -26 -18 -50 -33 -54 -33 -5 0 -8 45 -8 100 l0 100 68 34 c70
35 149 62 230 76 76 14 280 5 337 -16z m1310 11 c87 -23 151 -62 216 -134 l59
-64 0 92 0 91 95 0 95 0 0 -674 c0 -727 -1 -750 -54 -889 -66 -176 -187 -283
-381 -339 -69 -19 -103 -22 -245 -22 -175 0 -274 16 -382 63 l-48 20 0 100 0
99 88 -38 c112 -48 196 -69 302 -77 223 -15 392 67 468 228 40 86 52 148 58
309 l5 135 -21 -25 c-12 -14 -36 -43 -55 -66 -135 -165 -421 -212 -635 -106
-112 55 -222 198 -264 342 -56 189 -35 465 47 643 54 118 174 238 283 283 102
43 266 56 369 29z m1554 0 c192 -46 332 -201 375 -417 9 -42 16 -127 16 -188
l0 -110 -466 0 -466 0 7 -52 c29 -229 125 -354 310 -403 146 -38 359 7 482
101 17 13 34 24 37 24 3 0 6 -43 6 -95 l0 -94 -82 -40 c-124 -61 -190 -75
-353 -76 -158 0 -204 9 -308 63 -122 63 -215 183 -267 347 -35 107 -40 349
-11 466 59 238 231 423 437 473 78 19 204 19 283 1z"/>
<path d="M35220 21674 c-200 -54 -320 -242 -320 -503 1 -264 119 -443 330
-497 125 -32 282 -4 379 67 50 36 116 134 136 203 56 188 34 432 -51 568 -31
49 -91 106 -136 129 -94 48 -232 61 -338 33z"/>
<path d="M40690 21154 c-230 -32 -302 -54 -356 -107 -33 -34 -44 -54 -54 -100
-27 -133 30 -235 152 -272 167 -49 340 30 420 193 31 62 33 74 37 189 2 99 0
123 -10 122 -8 -1 -93 -12 -189 -25z"/>
<path d="M41927 21680 c-147 -38 -261 -169 -301 -347 -21 -93 -21 -269 -1
-348 36 -139 115 -243 223 -293 48 -22 71 -27 147 -27 61 0 106 6 140 18 107
37 203 139 245 260 27 79 39 317 21 422 -23 132 -103 239 -219 293 -60 27
-188 39 -255 22z"/>
<path d="M43457 21680 c-127 -32 -234 -140 -278 -281 -34 -110 -71 -99 342
-99 l361 0 -7 53 c-21 164 -80 259 -190 308 -56 25 -167 34 -228 19z"/>
</g>
</svg>
